<svg width="1990" height="789" viewBox="0 0 1990 789" fill="none" xmlns="http://www.w3.org/2000/svg">
<rect x="0.5" y="489.5" width="149" height="299" fill="black" stroke="black"/>
<rect x="150" y="774" width="149" height="15" fill="black"/>
<rect x="299" width="20" height="789" fill="black"/>
<rect x="319" width="149" height="15" fill="black"/>
<rect x="468.5" y="0.5" width="149" height="299" fill="black" stroke="black"/>
<rect x="466" y="389" width="20" height="400" fill="black"/>
<rect x="486" y="389" width="150" height="15" fill="black"/>
<rect x="636.5" y="389.5" width="149" height="399" fill="black" stroke="black"/>
<rect x="1266" y="89" width="20" height="700" fill="black"/>
<rect x="1272" y="389" width="164" height="15" fill="black"/>
<rect x="1436.5" y="389.5" width="149" height="399" fill="black" stroke="black"/>
<rect x="850.5" y="390.5" width="149" height="39" fill="black" stroke="black"/>
<rect x="1000" y="390" width="40" height="15" fill="black"/>
<rect x="850.5" y="561.5" width="149" height="227" fill="black" stroke="black"/>
<rect x="1000" y="561" width="40" height="15" fill="black"/>
<rect x="1000" y="774" width="40" height="15" fill="black"/>
<rect x="1040.5" y="390.5" width="149" height="398" fill="black" stroke="black"/>
<rect x="1650.5" y="390.5" width="149" height="39" fill="black" stroke="black"/>
<rect x="1800" y="390" width="40" height="15" fill="black"/>
<rect x="1650.5" y="561.5" width="149" height="227" fill="black" stroke="black"/>
<rect x="1800" y="561" width="40" height="15" fill="black"/>
<rect x="1800" y="774" width="40" height="15" fill="black"/>
<rect x="1840.5" y="390.5" width="149" height="398" fill="black" stroke="black"/>
</svg>
